<svg width="640" height="420" viewBox="0 0 640 420" fill="none" xmlns="http://www.w3.org/2000/svg">
  <rect width="640" height="420" rx="28" fill="#0D1117"/>
  <rect x="32" y="32" width="576" height="356" rx="24" fill="#111827" stroke="#1F2937"/>
  <rect x="68" y="68" width="230" height="284" rx="24" fill="#0B1220" stroke="#233047"/>
  <rect x="98" y="94" width="170" height="16" rx="8" fill="#E5E7EB"/>
  <rect x="98" y="124" width="96" height="12" rx="6" fill="#334155"/>
  <rect x="98" y="174" width="170" height="58" rx="16" fill="#111827" stroke="#374151"/>
  <rect x="118" y="192" width="44" height="22" rx="11" fill="#22C55E"/>
  <rect x="174" y="192" width="52" height="22" rx="11" fill="#F59E0B"/>
  <circle cx="244" cy="203" r="14" fill="#1F2937"/>
  <path d="M238 203l4 4 8-9" stroke="#9CA3AF" stroke-width="3" stroke-linecap="round" stroke-linejoin="round"/>
  <rect x="98" y="252" width="170" height="58" rx="16" fill="#0A1F0A" stroke="#14532D"/>
  <rect x="118" y="270" width="44" height="22" rx="11" fill="#22C55E"/>
  <rect x="174" y="270" width="52" height="22" rx="11" fill="#F59E0B"/>
  <circle cx="244" cy="281" r="14" fill="#22C55E"/>
  <path d="M238 281l4 4 8-9" stroke="#04130A" stroke-width="3" stroke-linecap="round" stroke-linejoin="round"/>
  <rect x="330" y="80" width="236" height="132" rx="24" fill="#111827" stroke="#374151"/>
  <circle cx="448" cy="146" r="62" fill="none" stroke="#1F2937" stroke-width="14"/>
  <path d="M448 84a62 62 0 0 1 53.7 31" stroke="#22C55E" stroke-width="14" stroke-linecap="round"/>
  <text x="448" y="152" text-anchor="middle" fill="#E5E7EB" font-family="Inter, Arial, sans-serif" font-size="24" font-weight="800">1:30</text>
  <rect x="330" y="234" width="236" height="118" rx="24" fill="#172554" stroke="#1D4ED8"/>
  <rect x="358" y="264" width="100" height="14" rx="7" fill="#BFDBFE"/>
  <rect x="358" y="290" width="132" height="12" rx="6" fill="#1E3A8A"/>
  <rect x="358" y="316" width="84" height="12" rx="6" fill="#1E3A8A"/>
  <circle cx="515" cy="292" r="26" fill="#60A5FA" fill-opacity=".18" stroke="#60A5FA"/>
  <path d="M515 280v14M508 287h14" stroke="#60A5FA" stroke-width="4" stroke-linecap="round"/>
</svg>
